<svg xmlns="http://www.w3.org/2000/svg" width="1280" height="1368" viewBox="0 0 1280 1368">
<rect width="100%" height="100%" fill="#fafcff"/>
<text x="16" y="22" font-family="Arial, sans-serif" font-size="16" fill="#111827">Draw rain/no-rain zones on this layout</text>
<line x1="56" y1="34" x2="56" y2="1344" stroke="#415066" stroke-width="1"/>
<text x="58" y="28" font-family="Arial, sans-serif" font-size="10" fill="#334155">x0</text>
<line x1="66" y1="34" x2="66" y2="1344" stroke="#9aa6b5" stroke-width="1"/>
<line x1="76" y1="34" x2="76" y2="1344" stroke="#9aa6b5" stroke-width="1"/>
<line x1="86" y1="34" x2="86" y2="1344" stroke="#9aa6b5" stroke-width="1"/>
<line x1="96" y1="34" x2="96" y2="1344" stroke="#9aa6b5" stroke-width="1"/>
<line x1="106" y1="34" x2="106" y2="1344" stroke="#9aa6b5" stroke-width="1"/>
<line x1="116" y1="34" x2="116" y2="1344" stroke="#9aa6b5" stroke-width="1"/>
<line x1="126" y1="34" x2="126" y2="1344" stroke="#9aa6b5" stroke-width="1"/>
<line x1="136" y1="34" x2="136" y2="1344" stroke="#9aa6b5" stroke-width="1"/>
<line x1="146" y1="34" x2="146" y2="1344" stroke="#9aa6b5" stroke-width="1"/>
<line x1="156" y1="34" x2="156" y2="1344" stroke="#415066" stroke-width="1"/>
<text x="158" y="28" font-family="Arial, sans-serif" font-size="10" fill="#334155">x10</text>
<line x1="166" y1="34" x2="166" y2="1344" stroke="#9aa6b5" stroke-width="1"/>
<line x1="176" y1="34" x2="176" y2="1344" stroke="#9aa6b5" stroke-width="1"/>
<line x1="186" y1="34" x2="186" y2="1344" stroke="#9aa6b5" stroke-width="1"/>
<line x1="196" y1="34" x2="196" y2="1344" stroke="#9aa6b5" stroke-width="1"/>
<line x1="206" y1="34" x2="206" y2="1344" stroke="#9aa6b5" stroke-width="1"/>
<line x1="216" y1="34" x2="216" y2="1344" stroke="#9aa6b5" stroke-width="1"/>
<line x1="226" y1="34" x2="226" y2="1344" stroke="#9aa6b5" stroke-width="1"/>
<line x1="236" y1="34" x2="236" y2="1344" stroke="#9aa6b5" stroke-width="1"/>
<line x1="246" y1="34" x2="246" y2="1344" stroke="#9aa6b5" stroke-width="1"/>
<line x1="256" y1="34" x2="256" y2="1344" stroke="#415066" stroke-width="1"/>
<text x="258" y="28" font-family="Arial, sans-serif" font-size="10" fill="#334155">x20</text>
<line x1="266" y1="34" x2="266" y2="1344" stroke="#9aa6b5" stroke-width="1"/>
<line x1="276" y1="34" x2="276" y2="1344" stroke="#9aa6b5" stroke-width="1"/>
<line x1="286" y1="34" x2="286" y2="1344" stroke="#9aa6b5" stroke-width="1"/>
<line x1="296" y1="34" x2="296" y2="1344" stroke="#9aa6b5" stroke-width="1"/>
<line x1="306" y1="34" x2="306" y2="1344" stroke="#9aa6b5" stroke-width="1"/>
<line x1="316" y1="34" x2="316" y2="1344" stroke="#9aa6b5" stroke-width="1"/>
<line x1="326" y1="34" x2="326" y2="1344" stroke="#9aa6b5" stroke-width="1"/>
<line x1="336" y1="34" x2="336" y2="1344" stroke="#9aa6b5" stroke-width="1"/>
<line x1="346" y1="34" x2="346" y2="1344" stroke="#9aa6b5" stroke-width="1"/>
<line x1="356" y1="34" x2="356" y2="1344" stroke="#415066" stroke-width="1"/>
<text x="358" y="28" font-family="Arial, sans-serif" font-size="10" fill="#334155">x30</text>
<line x1="366" y1="34" x2="366" y2="1344" stroke="#9aa6b5" stroke-width="1"/>
<line x1="376" y1="34" x2="376" y2="1344" stroke="#9aa6b5" stroke-width="1"/>
<line x1="386" y1="34" x2="386" y2="1344" stroke="#9aa6b5" stroke-width="1"/>
<line x1="396" y1="34" x2="396" y2="1344" stroke="#9aa6b5" stroke-width="1"/>
<line x1="406" y1="34" x2="406" y2="1344" stroke="#9aa6b5" stroke-width="1"/>
<line x1="416" y1="34" x2="416" y2="1344" stroke="#9aa6b5" stroke-width="1"/>
<line x1="426" y1="34" x2="426" y2="1344" stroke="#9aa6b5" stroke-width="1"/>
<line x1="436" y1="34" x2="436" y2="1344" stroke="#9aa6b5" stroke-width="1"/>
<line x1="446" y1="34" x2="446" y2="1344" stroke="#9aa6b5" stroke-width="1"/>
<line x1="456" y1="34" x2="456" y2="1344" stroke="#415066" stroke-width="1"/>
<text x="458" y="28" font-family="Arial, sans-serif" font-size="10" fill="#334155">x40</text>
<line x1="466" y1="34" x2="466" y2="1344" stroke="#9aa6b5" stroke-width="1"/>
<line x1="476" y1="34" x2="476" y2="1344" stroke="#9aa6b5" stroke-width="1"/>
<line x1="486" y1="34" x2="486" y2="1344" stroke="#9aa6b5" stroke-width="1"/>
<line x1="496" y1="34" x2="496" y2="1344" stroke="#9aa6b5" stroke-width="1"/>
<line x1="506" y1="34" x2="506" y2="1344" stroke="#9aa6b5" stroke-width="1"/>
<line x1="516" y1="34" x2="516" y2="1344" stroke="#9aa6b5" stroke-width="1"/>
<line x1="526" y1="34" x2="526" y2="1344" stroke="#9aa6b5" stroke-width="1"/>
<line x1="536" y1="34" x2="536" y2="1344" stroke="#9aa6b5" stroke-width="1"/>
<line x1="546" y1="34" x2="546" y2="1344" stroke="#9aa6b5" stroke-width="1"/>
<line x1="556" y1="34" x2="556" y2="1344" stroke="#415066" stroke-width="1"/>
<text x="558" y="28" font-family="Arial, sans-serif" font-size="10" fill="#334155">x50</text>
<line x1="566" y1="34" x2="566" y2="1344" stroke="#9aa6b5" stroke-width="1"/>
<line x1="576" y1="34" x2="576" y2="1344" stroke="#9aa6b5" stroke-width="1"/>
<line x1="586" y1="34" x2="586" y2="1344" stroke="#9aa6b5" stroke-width="1"/>
<line x1="596" y1="34" x2="596" y2="1344" stroke="#9aa6b5" stroke-width="1"/>
<line x1="606" y1="34" x2="606" y2="1344" stroke="#9aa6b5" stroke-width="1"/>
<line x1="616" y1="34" x2="616" y2="1344" stroke="#9aa6b5" stroke-width="1"/>
<line x1="626" y1="34" x2="626" y2="1344" stroke="#9aa6b5" stroke-width="1"/>
<line x1="636" y1="34" x2="636" y2="1344" stroke="#9aa6b5" stroke-width="1"/>
<line x1="646" y1="34" x2="646" y2="1344" stroke="#9aa6b5" stroke-width="1"/>
<line x1="656" y1="34" x2="656" y2="1344" stroke="#415066" stroke-width="1"/>
<text x="658" y="28" font-family="Arial, sans-serif" font-size="10" fill="#334155">x60</text>
<line x1="666" y1="34" x2="666" y2="1344" stroke="#9aa6b5" stroke-width="1"/>
<line x1="676" y1="34" x2="676" y2="1344" stroke="#9aa6b5" stroke-width="1"/>
<line x1="686" y1="34" x2="686" y2="1344" stroke="#9aa6b5" stroke-width="1"/>
<line x1="696" y1="34" x2="696" y2="1344" stroke="#9aa6b5" stroke-width="1"/>
<line x1="706" y1="34" x2="706" y2="1344" stroke="#9aa6b5" stroke-width="1"/>
<line x1="716" y1="34" x2="716" y2="1344" stroke="#9aa6b5" stroke-width="1"/>
<line x1="726" y1="34" x2="726" y2="1344" stroke="#9aa6b5" stroke-width="1"/>
<line x1="736" y1="34" x2="736" y2="1344" stroke="#9aa6b5" stroke-width="1"/>
<line x1="746" y1="34" x2="746" y2="1344" stroke="#9aa6b5" stroke-width="1"/>
<line x1="756" y1="34" x2="756" y2="1344" stroke="#415066" stroke-width="1"/>
<text x="758" y="28" font-family="Arial, sans-serif" font-size="10" fill="#334155">x70</text>
<line x1="766" y1="34" x2="766" y2="1344" stroke="#9aa6b5" stroke-width="1"/>
<line x1="776" y1="34" x2="776" y2="1344" stroke="#9aa6b5" stroke-width="1"/>
<line x1="786" y1="34" x2="786" y2="1344" stroke="#9aa6b5" stroke-width="1"/>
<line x1="796" y1="34" x2="796" y2="1344" stroke="#9aa6b5" stroke-width="1"/>
<line x1="806" y1="34" x2="806" y2="1344" stroke="#9aa6b5" stroke-width="1"/>
<line x1="816" y1="34" x2="816" y2="1344" stroke="#9aa6b5" stroke-width="1"/>
<line x1="826" y1="34" x2="826" y2="1344" stroke="#9aa6b5" stroke-width="1"/>
<line x1="836" y1="34" x2="836" y2="1344" stroke="#9aa6b5" stroke-width="1"/>
<line x1="846" y1="34" x2="846" y2="1344" stroke="#9aa6b5" stroke-width="1"/>
<line x1="856" y1="34" x2="856" y2="1344" stroke="#415066" stroke-width="1"/>
<text x="858" y="28" font-family="Arial, sans-serif" font-size="10" fill="#334155">x80</text>
<line x1="866" y1="34" x2="866" y2="1344" stroke="#9aa6b5" stroke-width="1"/>
<line x1="876" y1="34" x2="876" y2="1344" stroke="#9aa6b5" stroke-width="1"/>
<line x1="886" y1="34" x2="886" y2="1344" stroke="#9aa6b5" stroke-width="1"/>
<line x1="896" y1="34" x2="896" y2="1344" stroke="#9aa6b5" stroke-width="1"/>
<line x1="906" y1="34" x2="906" y2="1344" stroke="#9aa6b5" stroke-width="1"/>
<line x1="916" y1="34" x2="916" y2="1344" stroke="#9aa6b5" stroke-width="1"/>
<line x1="926" y1="34" x2="926" y2="1344" stroke="#9aa6b5" stroke-width="1"/>
<line x1="936" y1="34" x2="936" y2="1344" stroke="#9aa6b5" stroke-width="1"/>
<line x1="946" y1="34" x2="946" y2="1344" stroke="#9aa6b5" stroke-width="1"/>
<line x1="956" y1="34" x2="956" y2="1344" stroke="#415066" stroke-width="1"/>
<text x="958" y="28" font-family="Arial, sans-serif" font-size="10" fill="#334155">x90</text>
<line x1="966" y1="34" x2="966" y2="1344" stroke="#9aa6b5" stroke-width="1"/>
<line x1="976" y1="34" x2="976" y2="1344" stroke="#9aa6b5" stroke-width="1"/>
<line x1="986" y1="34" x2="986" y2="1344" stroke="#9aa6b5" stroke-width="1"/>
<line x1="996" y1="34" x2="996" y2="1344" stroke="#9aa6b5" stroke-width="1"/>
<line x1="1006" y1="34" x2="1006" y2="1344" stroke="#9aa6b5" stroke-width="1"/>
<line x1="1016" y1="34" x2="1016" y2="1344" stroke="#9aa6b5" stroke-width="1"/>
<line x1="1026" y1="34" x2="1026" y2="1344" stroke="#9aa6b5" stroke-width="1"/>
<line x1="1036" y1="34" x2="1036" y2="1344" stroke="#9aa6b5" stroke-width="1"/>
<line x1="1046" y1="34" x2="1046" y2="1344" stroke="#9aa6b5" stroke-width="1"/>
<line x1="1056" y1="34" x2="1056" y2="1344" stroke="#415066" stroke-width="1"/>
<text x="1058" y="28" font-family="Arial, sans-serif" font-size="10" fill="#334155">x100</text>
<line x1="1066" y1="34" x2="1066" y2="1344" stroke="#9aa6b5" stroke-width="1"/>
<line x1="1076" y1="34" x2="1076" y2="1344" stroke="#9aa6b5" stroke-width="1"/>
<line x1="1086" y1="34" x2="1086" y2="1344" stroke="#9aa6b5" stroke-width="1"/>
<line x1="1096" y1="34" x2="1096" y2="1344" stroke="#9aa6b5" stroke-width="1"/>
<line x1="1106" y1="34" x2="1106" y2="1344" stroke="#9aa6b5" stroke-width="1"/>
<line x1="1116" y1="34" x2="1116" y2="1344" stroke="#9aa6b5" stroke-width="1"/>
<line x1="1126" y1="34" x2="1126" y2="1344" stroke="#9aa6b5" stroke-width="1"/>
<line x1="1136" y1="34" x2="1136" y2="1344" stroke="#9aa6b5" stroke-width="1"/>
<line x1="1146" y1="34" x2="1146" y2="1344" stroke="#9aa6b5" stroke-width="1"/>
<line x1="1156" y1="34" x2="1156" y2="1344" stroke="#415066" stroke-width="1"/>
<text x="1158" y="28" font-family="Arial, sans-serif" font-size="10" fill="#334155">x110</text>
<line x1="1166" y1="34" x2="1166" y2="1344" stroke="#9aa6b5" stroke-width="1"/>
<line x1="1176" y1="34" x2="1176" y2="1344" stroke="#9aa6b5" stroke-width="1"/>
<line x1="1186" y1="34" x2="1186" y2="1344" stroke="#9aa6b5" stroke-width="1"/>
<line x1="1196" y1="34" x2="1196" y2="1344" stroke="#9aa6b5" stroke-width="1"/>
<line x1="1206" y1="34" x2="1206" y2="1344" stroke="#9aa6b5" stroke-width="1"/>
<line x1="1216" y1="34" x2="1216" y2="1344" stroke="#9aa6b5" stroke-width="1"/>
<line x1="1226" y1="34" x2="1226" y2="1344" stroke="#9aa6b5" stroke-width="1"/>
<line x1="1236" y1="34" x2="1236" y2="1344" stroke="#9aa6b5" stroke-width="1"/>
<line x1="1246" y1="34" x2="1246" y2="1344" stroke="#9aa6b5" stroke-width="1"/>
<line x1="1256" y1="34" x2="1256" y2="1344" stroke="#415066" stroke-width="1"/>
<text x="1258" y="28" font-family="Arial, sans-serif" font-size="10" fill="#334155">x120</text>
<line x1="56" y1="34" x2="1256" y2="34" stroke="#415066" stroke-width="1"/>
<text x="10" y="38" font-family="Arial, sans-serif" font-size="10" fill="#334155">y0</text>
<line x1="56" y1="44" x2="1256" y2="44" stroke="#9aa6b5" stroke-width="1"/>
<line x1="56" y1="54" x2="1256" y2="54" stroke="#9aa6b5" stroke-width="1"/>
<line x1="56" y1="64" x2="1256" y2="64" stroke="#9aa6b5" stroke-width="1"/>
<line x1="56" y1="74" x2="1256" y2="74" stroke="#9aa6b5" stroke-width="1"/>
<line x1="56" y1="84" x2="1256" y2="84" stroke="#9aa6b5" stroke-width="1"/>
<line x1="56" y1="94" x2="1256" y2="94" stroke="#9aa6b5" stroke-width="1"/>
<line x1="56" y1="104" x2="1256" y2="104" stroke="#9aa6b5" stroke-width="1"/>
<line x1="56" y1="114" x2="1256" y2="114" stroke="#9aa6b5" stroke-width="1"/>
<line x1="56" y1="124" x2="1256" y2="124" stroke="#9aa6b5" stroke-width="1"/>
<line x1="56" y1="134" x2="1256" y2="134" stroke="#415066" stroke-width="1"/>
<text x="10" y="138" font-family="Arial, sans-serif" font-size="10" fill="#334155">y10</text>
<line x1="56" y1="144" x2="1256" y2="144" stroke="#9aa6b5" stroke-width="1"/>
<line x1="56" y1="154" x2="1256" y2="154" stroke="#9aa6b5" stroke-width="1"/>
<line x1="56" y1="164" x2="1256" y2="164" stroke="#9aa6b5" stroke-width="1"/>
<line x1="56" y1="174" x2="1256" y2="174" stroke="#9aa6b5" stroke-width="1"/>
<line x1="56" y1="184" x2="1256" y2="184" stroke="#9aa6b5" stroke-width="1"/>
<line x1="56" y1="194" x2="1256" y2="194" stroke="#9aa6b5" stroke-width="1"/>
<line x1="56" y1="204" x2="1256" y2="204" stroke="#9aa6b5" stroke-width="1"/>
<line x1="56" y1="214" x2="1256" y2="214" stroke="#9aa6b5" stroke-width="1"/>
<line x1="56" y1="224" x2="1256" y2="224" stroke="#9aa6b5" stroke-width="1"/>
<line x1="56" y1="234" x2="1256" y2="234" stroke="#415066" stroke-width="1"/>
<text x="10" y="238" font-family="Arial, sans-serif" font-size="10" fill="#334155">y20</text>
<line x1="56" y1="244" x2="1256" y2="244" stroke="#9aa6b5" stroke-width="1"/>
<line x1="56" y1="254" x2="1256" y2="254" stroke="#9aa6b5" stroke-width="1"/>
<line x1="56" y1="264" x2="1256" y2="264" stroke="#9aa6b5" stroke-width="1"/>
<line x1="56" y1="274" x2="1256" y2="274" stroke="#9aa6b5" stroke-width="1"/>
<line x1="56" y1="284" x2="1256" y2="284" stroke="#9aa6b5" stroke-width="1"/>
<line x1="56" y1="294" x2="1256" y2="294" stroke="#9aa6b5" stroke-width="1"/>
<line x1="56" y1="304" x2="1256" y2="304" stroke="#9aa6b5" stroke-width="1"/>
<line x1="56" y1="314" x2="1256" y2="314" stroke="#9aa6b5" stroke-width="1"/>
<line x1="56" y1="324" x2="1256" y2="324" stroke="#9aa6b5" stroke-width="1"/>
<line x1="56" y1="334" x2="1256" y2="334" stroke="#415066" stroke-width="1"/>
<text x="10" y="338" font-family="Arial, sans-serif" font-size="10" fill="#334155">y30</text>
<line x1="56" y1="344" x2="1256" y2="344" stroke="#9aa6b5" stroke-width="1"/>
<line x1="56" y1="354" x2="1256" y2="354" stroke="#9aa6b5" stroke-width="1"/>
<line x1="56" y1="364" x2="1256" y2="364" stroke="#9aa6b5" stroke-width="1"/>
<line x1="56" y1="374" x2="1256" y2="374" stroke="#9aa6b5" stroke-width="1"/>
<line x1="56" y1="384" x2="1256" y2="384" stroke="#9aa6b5" stroke-width="1"/>
<line x1="56" y1="394" x2="1256" y2="394" stroke="#9aa6b5" stroke-width="1"/>
<line x1="56" y1="404" x2="1256" y2="404" stroke="#9aa6b5" stroke-width="1"/>
<line x1="56" y1="414" x2="1256" y2="414" stroke="#9aa6b5" stroke-width="1"/>
<line x1="56" y1="424" x2="1256" y2="424" stroke="#9aa6b5" stroke-width="1"/>
<line x1="56" y1="434" x2="1256" y2="434" stroke="#415066" stroke-width="1"/>
<text x="10" y="438" font-family="Arial, sans-serif" font-size="10" fill="#334155">y40</text>
<line x1="56" y1="444" x2="1256" y2="444" stroke="#9aa6b5" stroke-width="1"/>
<line x1="56" y1="454" x2="1256" y2="454" stroke="#9aa6b5" stroke-width="1"/>
<line x1="56" y1="464" x2="1256" y2="464" stroke="#9aa6b5" stroke-width="1"/>
<line x1="56" y1="474" x2="1256" y2="474" stroke="#9aa6b5" stroke-width="1"/>
<line x1="56" y1="484" x2="1256" y2="484" stroke="#9aa6b5" stroke-width="1"/>
<line x1="56" y1="494" x2="1256" y2="494" stroke="#9aa6b5" stroke-width="1"/>
<line x1="56" y1="504" x2="1256" y2="504" stroke="#9aa6b5" stroke-width="1"/>
<line x1="56" y1="514" x2="1256" y2="514" stroke="#9aa6b5" stroke-width="1"/>
<line x1="56" y1="524" x2="1256" y2="524" stroke="#9aa6b5" stroke-width="1"/>
<line x1="56" y1="534" x2="1256" y2="534" stroke="#415066" stroke-width="1"/>
<text x="10" y="538" font-family="Arial, sans-serif" font-size="10" fill="#334155">y50</text>
<line x1="56" y1="544" x2="1256" y2="544" stroke="#9aa6b5" stroke-width="1"/>
<line x1="56" y1="554" x2="1256" y2="554" stroke="#9aa6b5" stroke-width="1"/>
<line x1="56" y1="564" x2="1256" y2="564" stroke="#9aa6b5" stroke-width="1"/>
<line x1="56" y1="574" x2="1256" y2="574" stroke="#9aa6b5" stroke-width="1"/>
<line x1="56" y1="584" x2="1256" y2="584" stroke="#9aa6b5" stroke-width="1"/>
<line x1="56" y1="594" x2="1256" y2="594" stroke="#9aa6b5" stroke-width="1"/>
<line x1="56" y1="604" x2="1256" y2="604" stroke="#9aa6b5" stroke-width="1"/>
<line x1="56" y1="614" x2="1256" y2="614" stroke="#9aa6b5" stroke-width="1"/>
<line x1="56" y1="624" x2="1256" y2="624" stroke="#9aa6b5" stroke-width="1"/>
<line x1="56" y1="634" x2="1256" y2="634" stroke="#415066" stroke-width="1"/>
<text x="10" y="638" font-family="Arial, sans-serif" font-size="10" fill="#334155">y60</text>
<line x1="56" y1="644" x2="1256" y2="644" stroke="#9aa6b5" stroke-width="1"/>
<line x1="56" y1="654" x2="1256" y2="654" stroke="#9aa6b5" stroke-width="1"/>
<line x1="56" y1="664" x2="1256" y2="664" stroke="#9aa6b5" stroke-width="1"/>
<line x1="56" y1="674" x2="1256" y2="674" stroke="#9aa6b5" stroke-width="1"/>
<line x1="56" y1="684" x2="1256" y2="684" stroke="#9aa6b5" stroke-width="1"/>
<line x1="56" y1="694" x2="1256" y2="694" stroke="#9aa6b5" stroke-width="1"/>
<line x1="56" y1="704" x2="1256" y2="704" stroke="#9aa6b5" stroke-width="1"/>
<line x1="56" y1="714" x2="1256" y2="714" stroke="#9aa6b5" stroke-width="1"/>
<line x1="56" y1="724" x2="1256" y2="724" stroke="#9aa6b5" stroke-width="1"/>
<line x1="56" y1="734" x2="1256" y2="734" stroke="#415066" stroke-width="1"/>
<text x="10" y="738" font-family="Arial, sans-serif" font-size="10" fill="#334155">y70</text>
<line x1="56" y1="744" x2="1256" y2="744" stroke="#9aa6b5" stroke-width="1"/>
<line x1="56" y1="754" x2="1256" y2="754" stroke="#9aa6b5" stroke-width="1"/>
<line x1="56" y1="764" x2="1256" y2="764" stroke="#9aa6b5" stroke-width="1"/>
<line x1="56" y1="774" x2="1256" y2="774" stroke="#9aa6b5" stroke-width="1"/>
<line x1="56" y1="784" x2="1256" y2="784" stroke="#9aa6b5" stroke-width="1"/>
<line x1="56" y1="794" x2="1256" y2="794" stroke="#9aa6b5" stroke-width="1"/>
<line x1="56" y1="804" x2="1256" y2="804" stroke="#9aa6b5" stroke-width="1"/>
<line x1="56" y1="814" x2="1256" y2="814" stroke="#9aa6b5" stroke-width="1"/>
<line x1="56" y1="824" x2="1256" y2="824" stroke="#9aa6b5" stroke-width="1"/>
<line x1="56" y1="834" x2="1256" y2="834" stroke="#415066" stroke-width="1"/>
<text x="10" y="838" font-family="Arial, sans-serif" font-size="10" fill="#334155">y80</text>
<line x1="56" y1="844" x2="1256" y2="844" stroke="#9aa6b5" stroke-width="1"/>
<line x1="56" y1="854" x2="1256" y2="854" stroke="#9aa6b5" stroke-width="1"/>
<line x1="56" y1="864" x2="1256" y2="864" stroke="#9aa6b5" stroke-width="1"/>
<line x1="56" y1="874" x2="1256" y2="874" stroke="#9aa6b5" stroke-width="1"/>
<line x1="56" y1="884" x2="1256" y2="884" stroke="#9aa6b5" stroke-width="1"/>
<line x1="56" y1="894" x2="1256" y2="894" stroke="#9aa6b5" stroke-width="1"/>
<line x1="56" y1="904" x2="1256" y2="904" stroke="#9aa6b5" stroke-width="1"/>
<line x1="56" y1="914" x2="1256" y2="914" stroke="#9aa6b5" stroke-width="1"/>
<line x1="56" y1="924" x2="1256" y2="924" stroke="#9aa6b5" stroke-width="1"/>
<line x1="56" y1="934" x2="1256" y2="934" stroke="#415066" stroke-width="1"/>
<text x="10" y="938" font-family="Arial, sans-serif" font-size="10" fill="#334155">y90</text>
<line x1="56" y1="944" x2="1256" y2="944" stroke="#9aa6b5" stroke-width="1"/>
<line x1="56" y1="954" x2="1256" y2="954" stroke="#9aa6b5" stroke-width="1"/>
<line x1="56" y1="964" x2="1256" y2="964" stroke="#9aa6b5" stroke-width="1"/>
<line x1="56" y1="974" x2="1256" y2="974" stroke="#9aa6b5" stroke-width="1"/>
<line x1="56" y1="984" x2="1256" y2="984" stroke="#9aa6b5" stroke-width="1"/>
<line x1="56" y1="994" x2="1256" y2="994" stroke="#9aa6b5" stroke-width="1"/>
<line x1="56" y1="1004" x2="1256" y2="1004" stroke="#9aa6b5" stroke-width="1"/>
<line x1="56" y1="1014" x2="1256" y2="1014" stroke="#9aa6b5" stroke-width="1"/>
<line x1="56" y1="1024" x2="1256" y2="1024" stroke="#9aa6b5" stroke-width="1"/>
<line x1="56" y1="1034" x2="1256" y2="1034" stroke="#415066" stroke-width="1"/>
<text x="10" y="1038" font-family="Arial, sans-serif" font-size="10" fill="#334155">y100</text>
<line x1="56" y1="1044" x2="1256" y2="1044" stroke="#9aa6b5" stroke-width="1"/>
<line x1="56" y1="1054" x2="1256" y2="1054" stroke="#9aa6b5" stroke-width="1"/>
<line x1="56" y1="1064" x2="1256" y2="1064" stroke="#9aa6b5" stroke-width="1"/>
<line x1="56" y1="1074" x2="1256" y2="1074" stroke="#9aa6b5" stroke-width="1"/>
<line x1="56" y1="1084" x2="1256" y2="1084" stroke="#9aa6b5" stroke-width="1"/>
<line x1="56" y1="1094" x2="1256" y2="1094" stroke="#9aa6b5" stroke-width="1"/>
<line x1="56" y1="1104" x2="1256" y2="1104" stroke="#9aa6b5" stroke-width="1"/>
<line x1="56" y1="1114" x2="1256" y2="1114" stroke="#9aa6b5" stroke-width="1"/>
<line x1="56" y1="1124" x2="1256" y2="1124" stroke="#9aa6b5" stroke-width="1"/>
<line x1="56" y1="1134" x2="1256" y2="1134" stroke="#415066" stroke-width="1"/>
<text x="10" y="1138" font-family="Arial, sans-serif" font-size="10" fill="#334155">y110</text>
<line x1="56" y1="1144" x2="1256" y2="1144" stroke="#9aa6b5" stroke-width="1"/>
<line x1="56" y1="1154" x2="1256" y2="1154" stroke="#9aa6b5" stroke-width="1"/>
<line x1="56" y1="1164" x2="1256" y2="1164" stroke="#9aa6b5" stroke-width="1"/>
<line x1="56" y1="1174" x2="1256" y2="1174" stroke="#9aa6b5" stroke-width="1"/>
<line x1="56" y1="1184" x2="1256" y2="1184" stroke="#9aa6b5" stroke-width="1"/>
<line x1="56" y1="1194" x2="1256" y2="1194" stroke="#9aa6b5" stroke-width="1"/>
<line x1="56" y1="1204" x2="1256" y2="1204" stroke="#9aa6b5" stroke-width="1"/>
<line x1="56" y1="1214" x2="1256" y2="1214" stroke="#9aa6b5" stroke-width="1"/>
<line x1="56" y1="1224" x2="1256" y2="1224" stroke="#9aa6b5" stroke-width="1"/>
<line x1="56" y1="1234" x2="1256" y2="1234" stroke="#415066" stroke-width="1"/>
<text x="10" y="1238" font-family="Arial, sans-serif" font-size="10" fill="#334155">y120</text>
<line x1="56" y1="1244" x2="1256" y2="1244" stroke="#9aa6b5" stroke-width="1"/>
<line x1="56" y1="1254" x2="1256" y2="1254" stroke="#9aa6b5" stroke-width="1"/>
<line x1="56" y1="1264" x2="1256" y2="1264" stroke="#9aa6b5" stroke-width="1"/>
<line x1="56" y1="1274" x2="1256" y2="1274" stroke="#9aa6b5" stroke-width="1"/>
<line x1="56" y1="1284" x2="1256" y2="1284" stroke="#9aa6b5" stroke-width="1"/>
<line x1="56" y1="1294" x2="1256" y2="1294" stroke="#9aa6b5" stroke-width="1"/>
<line x1="56" y1="1304" x2="1256" y2="1304" stroke="#9aa6b5" stroke-width="1"/>
<line x1="56" y1="1314" x2="1256" y2="1314" stroke="#9aa6b5" stroke-width="1"/>
<line x1="56" y1="1324" x2="1256" y2="1324" stroke="#9aa6b5" stroke-width="1"/>
<line x1="56" y1="1334" x2="1256" y2="1334" stroke="#415066" stroke-width="1"/>
<text x="10" y="1338" font-family="Arial, sans-serif" font-size="10" fill="#334155">y130</text>
<rect x="105.5" y="660.8" width="74.1" height="7.4" fill="#ffb0b0" opacity="0.55" stroke="#dc2626"/>
<rect x="171.4" y="659.8" width="74.1" height="7.4" fill="#ffb0b0" opacity="0.55" stroke="#dc2626"/>
<rect x="237.6" y="660.5" width="74.1" height="7.4" fill="#ffb0b0" opacity="0.55" stroke="#dc2626"/>
<rect x="301.5" y="660.3" width="74.1" height="7.4" fill="#ffb0b0" opacity="0.55" stroke="#dc2626"/>
<rect x="368.2" y="659.4" width="74.1" height="7.4" fill="#ffb0b0" opacity="0.55" stroke="#dc2626"/>
<rect x="422.3" y="659.7" width="74.1" height="7.4" fill="#ffb0b0" opacity="0.55" stroke="#dc2626"/>
<rect x="490.6" y="660.6" width="74.1" height="7.4" fill="#ffb0b0" opacity="0.55" stroke="#dc2626"/>
<rect x="558.7" y="660.5" width="74.1" height="7.4" fill="#ffb0b0" opacity="0.55" stroke="#dc2626"/>
<rect x="675.1" y="660.8" width="65.7" height="7.4" fill="#ffb0b0" opacity="0.55" stroke="#dc2626"/>
<rect x="1166.2" y="640.8" width="82.7" height="8.4" fill="#ffb0b0" opacity="0.55" stroke="#dc2626"/>
<rect x="66.0" y="609.7" width="390.0" height="12.2" fill="#ffb0b0" opacity="0.55" stroke="#dc2626"/>
</svg>
